<?xml version="1.0" standalone="no"?><!DOCTYPE svg PUBLIC "-//W3C//DTD SVG 1.1//EN" "http://www.w3.org/Graphics/SVG/1.1/DTD/svg11.dtd"><svg class="icon" height="512" viewBox="0 0 1024 1024" version="1.1" xmlns="http://www.w3.org/2000/svg"><path d="M823.87968 816.41472v-179.30752l-620.78976 4.78208v175.24224h0.27136c0 73.5488 138.92608 133.20192 310.272 133.20192 171.35616 0 310.28224-59.64288 310.28224-133.20192-0.00512-0.24064-0.03584-0.48128-0.03584-0.7168" fill="#2299E1" /><path d="M823.9104 637.11232c0 73.54368-138.92608 133.1968-310.28224 133.1968-171.36128 0-310.272-59.64288-310.272-133.1968 0-73.58976 138.91072-133.22752 310.272-133.22752 171.35616 0 310.28224 59.63776 310.28224 133.22752" fill="#FFFDFA" /><path d="M513.62816 532.25472c161.47456 0 282.10176 55.32672 282.10176 104.85248 0 49.46944-120.63232 104.82176-282.10176 104.82176-161.4592 0-282.10176-55.35232-282.10176-104.82176 0-49.50528 120.64256-104.85248 282.10176-104.85248m0-28.36992c-171.36128 0-310.272 59.64288-310.272 133.22752 0 73.54368 138.91072 133.1968 310.272 133.1968 171.35616 0 310.28224-59.64288 310.28224-133.1968 0-73.58464-138.92608-133.22752-310.28224-133.22752" fill="#FFFDFA" /><path d="M823.87968 607.24224V427.92448l-620.78976 4.7616v175.25248h0.27136c0 73.5488 138.92608 133.1968 310.272 133.1968 171.35616 0 310.28224-59.63264 310.28224-133.1968-0.00512-0.2304-0.03584-0.4608-0.03584-0.69632" fill="#2299E1" /><path d="M823.82848 427.93984c0 73.54368-138.92096 133.20192-310.31808 133.20192-171.3664 0-310.2976-59.65312-310.2976-133.20192 0-73.59488 138.9312-133.22752 310.2976-133.22752 171.39712 0.01024 310.31808 59.63264 310.31808 133.22752" fill="#FFFDFA" /><path d="M513.5104 323.08224c161.47456 0 282.112 55.34208 282.112 104.84736 0 49.5104-120.63744 104.84224-282.112 104.84224-161.44384 0-282.06592-55.33184-282.06592-104.84224 0.01024-49.50528 120.62208-104.84736 282.06592-104.84736m0-28.35968c-171.35616 0-310.2976 59.62752-310.2976 133.20704 0 73.5488 138.94144 133.21216 310.2976 133.21216 171.41248 0 310.33344-59.65824 310.33344-133.21216-0.01536-73.58464-138.93632-133.20704-310.33344-133.20704" fill="#FFFDFA" /><path d="M823.87968 398.08V218.76224h-0.0512c0 73.56928-138.92096 133.1968-310.31808 133.1968-167.61856 0-303.85664-57.09312-309.70368-128.42496h-0.7168v175.24736h0.27136c0 73.54368 138.92608 133.20704 310.272 133.20704 171.35616 0 310.28224-59.65824 310.28224-133.20704-0.00512-0.2304-0.03584-0.47104-0.03584-0.70144" fill="#2299E1" /><path d="M512.04608 104.576c-161.47968 0-308.34688 66.32448-280.59648 127.96416 0.56832 1.36704 0.46592 3.0464 0.68096 4.53632 7.04512 48.27648 124.86656 100.29568 281.3952 100.29568 161.20832 0 281.71264-55.19872 282.06592-104.63232 0-0.08192 0-0.14848 0.02048-0.19968 24.73984-65.08544-122.10176-127.96416-283.56608-127.96416" fill="#FFFDFA" /><path d="M513.5104 85.53984c-171.35616 0-310.2976 59.62752-310.2976 133.21728 0 1.60256 0.42496 3.1488 0.5888 4.77696 5.86752 71.33184 142.08 128.42496 309.71392 128.42496 171.39712 0 310.31296-59.63776 310.31296-133.1968 0-73.59488-138.92096-133.2224-310.31808-133.2224m0 238.04416c-156.5184 0-274.34496-52.01408-281.38496-100.26496-0.22016-1.536-0.67584-3.05664-0.67584-4.56192 0-49.50528 120.62208-104.86784 282.06592-104.86784 161.47456 0 282.10688 55.35232 282.10688 104.86784 0 0.0768-0.02048 0.13824-0.02048 0.20992-0.36352 49.4336-120.87808 104.61696-282.09152 104.61696" fill="#FFFDFA" /><path d="M513.5104 70.94784c-171.35616 0-310.2976 59.64288-310.2976 133.21728 0 1.62816 0.42496 3.18976 0.5888 4.78208 5.86752 71.33184 142.08 128.42496 309.71392 128.42496 171.39712 0 310.31296-59.63776 310.31296-133.20704 0-73.56416-138.92096-133.21728-310.31808-133.21728m0 238.04928c-156.5184 0-274.34496-52.02432-281.38496-100.26496-0.22016-1.54624-0.67584-3.0464-0.67584-4.56704 0-49.50016 120.62208-104.83712 282.06592-104.83712 161.47456 0 282.10688 55.33184 282.10688 104.83712 0 0.07168-0.02048 0.14848-0.02048 0.24064-0.36352 49.408-120.87808 104.59136-282.09152 104.59136" fill="#2299E1" /></svg>